<svg width="24" height="24" viewBox="0 0 24 24" fill="none" xmlns="http://www.w3.org/2000/svg">
<path fill-rule="evenodd" clip-rule="evenodd" d="M13 4.06189V2C13 1.44772 12.5523 1 12 1C11.4477 1 11 1.44772 11 2V4.06189C7.38128 4.51314 4.51314 7.38128 4.06189 11H2C1.44772 11 1 11.4477 1 12C1 12.5523 1.44772 13 2 13H4.06189C4.51314 16.6187 7.38128 19.4869 11 19.9381V22C11 22.5523 11.4477 23 12 23C12.5523 23 13 22.5523 13 22V19.9381C16.6187 19.4869 19.4869 16.6187 19.9381 13H22C22.5523 13 23 12.5523 23 12C23 11.4477 22.5523 11 22 11H19.9381C19.4869 7.38128 16.6187 4.51314 13 4.06189ZM11 8C11 8.55229 11.4477 9 12 9C12.5523 9 13 8.55228 13 8V6.08296C15.5125 6.50448 17.4955 8.4875 17.917 11H16C15.4477 11 15 11.4477 15 12C15 12.5523 15.4477 13 16 13H17.917C17.4955 15.5125 15.5125 17.4955 13 17.917V16C13 15.4477 12.5523 15 12 15C11.4477 15 11 15.4477 11 16V17.917C8.4875 17.4955 6.50448 15.5125 6.08296 13H8C8.55229 13 9 12.5523 9 12C9 11.4477 8.55229 11 8 11H6.08296C6.50448 8.4875 8.4875 6.50448 11 6.08296V8Z" fill="black"/>
</svg>
