<?xml version="1.0" encoding="UTF-8"?>
<svg width="100pt" height="100pt" version="1.1" viewBox="0 0 100 100" xmlns="http://www.w3.org/2000/svg">
 <g>
  <path d="m50.395 79.332c-16.266 0-29.5-13.234-29.5-29.5s13.234-29.5 29.5-29.5 29.5 13.234 29.5 29.5c0 16.27-13.234 29.5-29.5 29.5zm0-57c-15.164 0-27.5 12.336-27.5 27.5 0 15.164 12.336 27.5 27.5 27.5 15.164 0 27.5-12.336 27.5-27.5 0-15.164-12.34-27.5-27.5-27.5z"/>
  <path d="m42.09 54.902-1.3945-1.4375 9.7109-9.3867 9.3633 9.4023-1.418 1.4102-7.9727-8.0039z"/>
 </g>
</svg>
